<svg xmlns="http://www.w3.org/2000/svg" viewBox="0 0 100 100" width="100" height="100">
<rect width="100" height="100" rx="22" fill="#1E4A41"/>
<rect x="10" y="84" width="80" height="6" fill="#F3EBDA"/>
<rect x="16" y="78" width="68" height="6" fill="#F3EBDA"/>
<rect x="17" y="40" width="10" height="38" fill="#F3EBDA"/>
<rect x="18.2" y="44.5" width="7.6" height="4" fill="#C8963A"/>
<rect x="30" y="41.2" width="12" height="36.8" fill="#F3EBDA"/>
<rect x="31.2" y="45.7" width="9.6" height="4" fill="#C8963A"/>
<rect x="45" y="40" width="10" height="38" fill="#F3EBDA"/>
<rect x="46.2" y="44.5" width="7.6" height="4" fill="#C8963A"/>
<rect x="58" y="41.2" width="12" height="36.8" fill="#F3EBDA"/>
<rect x="59.2" y="45.7" width="9.6" height="4" fill="#C8963A"/>
<rect x="73" y="40" width="10" height="38" fill="#F3EBDA"/>
<rect x="74.2" y="44.5" width="7.6" height="4" fill="#C8963A"/>
<rect x="12" y="33" width="76" height="7" fill="#F3EBDA"/>
<polygon points="8,33 50,8 92,33" fill="#C8963A"/>
<ellipse cx="50" cy="25" rx="5.5" ry="5.5" fill="#F3EBDA"/>
<ellipse cx="50" cy="25" rx="2.5" ry="2.5" fill="#C8963A"/>
</svg>
